HIERARCHY
ROOT root
{
  OFFSET 0 87.9003 0
  CHANNELS 6 Xposition Yposition Zposition Zrotation Xrotation Yrotation
  JOINT torso_1
  {
    OFFSET 0 4.78511 -1.08482
    CHANNELS 6 Xposition Yposition Zposition Zrotation Xrotation Yrotation
    JOINT torso_2
    {
      OFFSET 0 5.29195 1.00949
      CHANNELS 6 Xposition Yposition Zposition Zrotation Xrotation Yrotation
      JOINT torso_3
      {
        OFFSET -9.66735e-18 5.64355 0.108362
        CHANNELS 6 Xposition Yposition Zposition Zrotation Xrotation Yrotation
        JOINT torso_4
        {
          OFFSET -1.04072e-17 6.12977 -0.417886
          CHANNELS 6 Xposition Yposition Zposition Zrotation Xrotation Yrotation
          JOINT torso_5
          {
            OFFSET -1.85891e-17 7.16586 -1.41888
            CHANNELS 6 Xposition Yposition Zposition Zrotation Xrotation Yrotation
            JOINT torso_6
            {
              OFFSET -2.38665e-17 8.94839 -0.861631
              CHANNELS 6 Xposition Yposition Zposition Zrotation Xrotation Yrotation
              JOINT torso_7
              {
                OFFSET -2.73615e-17 9.94144 1.48576
                CHANNELS 6 Xposition Yposition Zposition Zrotation Xrotation Yrotation
                JOINT neck_1
                {
                  OFFSET -1.21725e-17 4.50977 0.67399
                  CHANNELS 6 Xposition Yposition Zposition Zrotation Xrotation Yrotation
                  JOINT neck_2
                  {
                    OFFSET -1.70689e-17 4.54241 0.39741
                    CHANNELS 6 Xposition Yposition Zposition Zrotation Xrotation Yrotation
                    JOINT head
                    {
                      OFFSET -1.89342e-17 4.5512 0.720839
                      CHANNELS 6 Xposition Yposition Zposition Zrotation Xrotation Yrotation
                      End Site
                      {
                        OFFSET 0 0.1 0
                      }
                    }
                  }
                }
                JOINT l_shoulder
                {
                  OFFSET 1.16172 -7.16758 7.09827
                  CHANNELS 6 Xposition Yposition Zposition Zrotation Xrotation Yrotation
                  JOINT l_up_arm
                  {
                    OFFSET 12.2059 3.06167 -3.07978
                    CHANNELS 6 Xposition Yposition Zposition Zrotation Xrotation Yrotation
                    JOINT l_low_arm
                    {
                      OFFSET 27.5197 0.056351 0.129118
                      CHANNELS 6 Xposition Yposition Zposition Zrotation Xrotation Yrotation
                      JOINT l_hand
                      {
                        OFFSET 22.8331 0.0467536 0.107129
                        CHANNELS 6 Xposition Yposition Zposition Zrotation Xrotation Yrotation
                        End Site
                        {
                          OFFSET 0.1 0 0
                        }
                      }
                    }
                  }
                }
                JOINT r_shoulder
                {
                  OFFSET -1.16172 -7.16756 7.09818
                  CHANNELS 6 Xposition Yposition Zposition Zrotation Xrotation Yrotation
                  JOINT r_up_arm
                  {
                    OFFSET -12.2059 3.06167 -3.07978
                    CHANNELS 6 Xposition Yposition Zposition Zrotation Xrotation Yrotation
                    JOINT r_low_arm
                    {
                      OFFSET -27.5197 0.056351 0.129118
                      CHANNELS 6 Xposition Yposition Zposition Zrotation Xrotation Yrotation
                      JOINT r_hand
                      {
                        OFFSET -22.8331 0.0467534 0.107129
                        CHANNELS 6 Xposition Yposition Zposition Zrotation Xrotation Yrotation
                        End Site
                        {
                          OFFSET -0.1 0 0
                        }
                      }
                    }
                  }
                }
              }
            }
          }
        }
      }
    }
  }
  JOINT l_up_leg
  {
    OFFSET 8.70282 -3.96247 1.9152
    CHANNELS 6 Xposition Yposition Zposition Zrotation Xrotation Yrotation
    JOINT l_low_leg
    {
      OFFSET -0.803084 -36.5309 -0.617314
      CHANNELS 6 Xposition Yposition Zposition Zrotation Xrotation Yrotation
      JOINT l_foot
      {
        OFFSET -2.19176 -38.0664 -5.69911
        CHANNELS 6 Xposition Yposition Zposition Zrotation Xrotation Yrotation
        JOINT l_toes
        {
          OFFSET 0.734061 -9.31305 11.7736
          CHANNELS 6 Xposition Yposition Zposition Zrotation Xrotation Yrotation
          End Site
          {
            OFFSET 0 0 0.1
          }
        }
      }
    }
  }
  JOINT r_up_leg
  {
    OFFSET -8.70282 -3.96247 1.9152
    CHANNELS 6 Xposition Yposition Zposition Zrotation Xrotation Yrotation
    JOINT r_low_leg
    {
      OFFSET 0.803084 -36.5309 -0.617314
      CHANNELS 6 Xposition Yposition Zposition Zrotation Xrotation Yrotation
      JOINT r_foot
      {
        OFFSET 2.19176 -38.0664 -5.69911
        CHANNELS 6 Xposition Yposition Zposition Zrotation Xrotation Yrotation
        JOINT r_toes
        {
          OFFSET -0.734061 -9.31305 11.7736
          CHANNELS 6 Xposition Yposition Zposition Zrotation Xrotation Yrotation
          End Site
          {
            OFFSET 0 0 0.1
          }
        }
      }
    }
  }
}
MOTION
Frames: 5
Frame Time: 0.020000
-3.16085 87.5066 -42.8847 -2.95857 2.53086 23.6761 0 4.78511 -1.08482 -1.23951 -2.68712 0.113423 0 5.29195 1.00949 -0.99772 -1.23654 0.129335 -9.66735e-18 5.64355 0.108362 -0.692885 0.915413 0.246981 -1.04072e-17 6.12977 -0.417886 -0.426254 4.15668 0.305508 -1.85891e-17 7.16586 -1.41888 -0.04687 5.95614 0.331342 -2.38665e-17 8.94839 -0.861631 0.35402 6.99326 0.0699654 -2.73615e-17 9.94144 1.48576 0.00356237 0.391362 0.056502 -1.21725e-17 4.50977 0.67399 -0.491787 5.63933 -18.6571 -1.70689e-17 4.54241 0.39741 2.89986 -5.59607 -8.75278 -1.89342e-17 4.5512 0.720839 4.056 -8.37483 -10.0577 1.16172 -7.16758 7.09827 2.68711 0.427444 1.32312 12.2059 3.06167 -3.07978 -77.84 51.0171 13.3501 27.5197 0.056351 0.129118 10.2865 -5.77686 -59.1394 22.8331 0.0467536 0.107129 4.02038 37.9485 -0.381203 -1.16172 -7.16756 7.09818 -3.85596 0.677377 -1.08881 -12.2059 3.06167 -3.07978 84.1839 53.89 -18.7926 -27.5197 0.056351 0.129118 -10.3782 -5.93004 59.9889 -22.8331 0.0467534 0.107129 -6.07116 54.321 6.34436 8.70282 -3.96247 1.9152 5.43228 -6.73087 -13.8452 -0.803084 -36.5309 -0.617314 -0.671086 2.50632 -0.0290716 -2.19176 -38.0664 -5.69911 -0.462927 -2.78377 15.3953 0.734061 -9.31305 11.7736 2.48481e-17 -7.95139e-16 1.2424e-17 -8.70282 -3.96247 1.9152 -3.44049 -10.6824 27.2915 0.803084 -36.5309 -0.617314 1.49276 5.57095 0.0246798 2.19176 -38.0664 -5.69911 5.39595 -0.372734 -15.917 -0.734061 -9.31305 11.7736 -5.93259e-16 -5.59275e-16 -1.27472e-14 
-4.23647 87.6433 -41.525 -3.03165 2.37818 23.1858 0 4.78511 -1.08482 -1.56125 -2.88223 0.159717 0 5.29195 1.00949 -1.27221 -1.38265 0.130064 -9.66735e-18 5.64355 0.108362 -0.899889 0.847267 0.243398 -1.04072e-17 6.12977 -0.417886 -0.563937 4.19522 0.296151 -1.85891e-17 7.16586 -1.41888 -0.115236 6.06156 0.344859 -2.38665e-17 8.94839 -0.861631 0.367728 7.14258 0.0788861 -2.73615e-17 9.94144 1.48576 0.0085327 0.377027 0.0399389 -1.21725e-17 4.50977 0.67399 -0.317684 5.98373 -18.6488 -1.70689e-17 4.54241 0.39741 3.26219 -5.46747 -8.72594 -1.89342e-17 4.5512 0.720839 4.84403 -8.1683 -10.0031 1.16172 -7.16758 7.09827 2.86437 0.361863 1.31098 12.2059 3.06167 -3.07978 -76.6987 50.5465 13.9415 27.5197 0.056351 0.129118 10.2725 -5.75393 -59.0115 22.8331 0.0467536 0.107129 4.05778 37.5748 -1.42937 -1.16172 -7.16756 7.09818 -3.64092 0.586234 -1.17403 -12.2059 3.06167 -3.07978 85.7717 54.2903 -19.1569 -27.5197 0.056351 0.129118 -10.3383 -5.86274 59.6165 -22.8331 0.0467534 0.107129 -6.14335 54.3276 5.84296 8.70282 -3.96247 1.9152 6.48062 -5.73589 -13.2638 -0.803084 -36.5309 -0.617314 -0.51117 1.90891 -0.0248052 -2.19176 -38.0664 -5.69911 -0.458373 -2.04253 15.4557 0.734061 -9.31305 11.7736 2.48481e-17 -7.95139e-16 1.2424e-17 -8.70282 -3.96247 1.9152 -2.34098 -9.79768 27.9328 0.803084 -36.5309 -0.617314 1.34952 5.03771 0.0286161 2.19176 -38.0664 -5.69911 5.42897 -0.450261 -15.8378 -0.734061 -9.31305 11.7736 -2.01879e-16 -5.83737e-16 -1.27594e-14 
-4.25789 87.6496 -41.5353 -3.10975 2.22808 22.6797 0 4.78511 -1.08482 -1.58445 -3.01062 0.124652 0 5.29195 1.00949 -1.27472 -1.45838 0.0928605 -9.66735e-18 5.64355 0.108362 -0.889039 0.846589 0.204724 -1.04072e-17 6.12977 -0.417886 -0.534426 4.31735 0.256479 -1.85891e-17 7.16586 -1.41888 -0.0749187 6.23936 0.29908 -2.38665e-17 8.94839 -0.861631 0.412139 7.34432 0.0207995 -2.73615e-17 9.94144 1.48576 0.0136545 0.354241 0.035122 -1.21725e-17 4.50977 0.67399 -0.250143 5.87488 -18.7519 -1.70689e-17 4.54241 0.39741 3.62958 -5.68964 -8.76334 -1.89342e-17 4.5512 0.720839 4.72918 -8.16795 -9.46162 1.16172 -7.16758 7.09827 2.91348 0.203332 1.45637 12.2059 3.06167 -3.07978 -76.7896 50.9025 14.1063 27.5197 0.056351 0.129118 10.3643 -5.9067 -59.8601 22.8331 0.0467536 0.107129 3.40709 37.0828 -0.510754 -1.16172 -7.16756 7.09818 -3.96938 0.468276 -1.2777 -12.2059 3.06167 -3.07978 85.9722 53.6404 -19.0007 -27.5197 0.056351 0.129118 -10.326 -5.84209 59.5019 -22.8331 0.0467534 0.107129 -5.69452 54.6332 5.89884 8.70282 -3.96247 1.9152 6.64337 -5.49711 -12.6569 -0.803084 -36.5309 -0.617314 -0.479343 1.79001 -0.0237572 -2.19176 -38.0664 -5.69911 -0.3007 -2.00626 15.4334 0.734061 -9.31305 11.7736 -3.69626e-16 -8.07466e-16 2.47514e-17 -8.70282 -3.96247 1.9152 -2.10697 -9.85561 28.5541 0.803084 -36.5309 -0.617314 1.38458 5.1683 0.0277762 2.19176 -38.0664 -5.69911 5.69953 -0.311578 -15.8438 -0.734061 -9.31305 11.7736 -9.87734e-16 -5.46948e-16 -1.27225e-14 
-4.24009 87.6778 -41.578 -3.22975 2.11369 22.114 0 4.78511 -1.08482 -1.53182 -2.91923 0.0736792 0 5.29195 1.00949 -1.21627 -1.38028 0.0413998 -9.66735e-18 5.64355 0.108362 -0.835047 0.897548 0.153008 -1.04072e-17 6.12977 -0.417886 -0.4826 4.32914 0.203462 -1.85891e-17 7.16586 -1.41888 -0.0387904 6.2224 0.234558 -2.38665e-17 8.94839 -0.861631 0.421578 7.32646 -0.0522882 -2.73615e-17 9.94144 1.48576 0.0092853 0.348494 0.0340445 -1.21725e-17 4.50977 0.67399 -0.276905 5.74068 -18.3348 -1.70689e-17 4.54241 0.39741 3.52916 -5.72327 -8.55687 -1.89342e-17 4.5512 0.720839 4.89639 -8.4486 -9.4153 1.16172 -7.16758 7.09827 2.74435 0.2523 1.32612 12.2059 3.06167 -3.07978 -76.8015 50.843 14.6935 27.5197 0.056351 0.129118 10.4252 -6.01104 -60.4355 22.8331 0.0467536 0.107129 3.45897 36.48 -0.54655 -1.16172 -7.16756 7.09818 -3.85635 0.48276 -1.13658 -12.2059 3.06167 -3.07978 85.8454 53.9411 -18.9315 -27.5197 0.056351 0.129118 -10.2649 -5.74127 58.9406 -22.8331 0.0467534 0.107129 -6.17536 54.1325 6.08118 8.70282 -3.96247 1.9152 6.84003 -5.34922 -12.3076 -0.803084 -36.5309 -0.617314 -0.479469 1.79048 -0.0237615 -2.19176 -38.0664 -5.69911 -0.348887 -2.02377 15.4434 0.734061 -9.31305 11.7736 -3.72721e-16 -8.07563e-16 2.48481e-17 -8.70282 -3.96247 1.9152 -1.84524 -9.96794 28.9919 0.803084 -36.5309 -0.617314 1.41274 5.27312 0.0270439 2.19176 -38.0664 -5.69911 5.85431 -0.0153862 -15.8763 -0.734061 -9.31305 11.7736 -5.99454e-16 -5.58985e-16 -1.27469e-14 
-4.21084 87.7044 -41.631 -3.36159 2.05448 21.5059 0 4.78511 -1.08482 -1.44614 -3.09401 0.0231681 0 5.29195 1.00949 -1.13064 -1.49093 -8.89414e-05 -9.66735e-18 5.64355 0.108362 -0.761431 0.879745 0.112329 -1.04072e-17 6.12977 -0.417886 -0.417829 4.46267 0.16221 -1.85891e-17 7.16586 -1.41888 0.0065085 6.42711 0.181521 -2.38665e-17 8.94839 -0.861631 0.436899 7.56824 -0.110332 -2.73615e-17 9.94144 1.48576 0.0101399 0.324234 0.027113 -1.21725e-17 4.50977 0.67399 -0.208007 5.74076 -18.0999 -1.70689e-17 4.54241 0.39741 3.5435 -5.98269 -8.4453 -1.89342e-17 4.5512 0.720839 4.89292 -8.83499 -8.91671 1.16172 -7.16758 7.09827 2.58036 0.0876747 1.34287 12.2059 3.06167 -3.07978 -76.5067 50.9813 14.3971 27.5197 0.056351 0.129118 10.411 -5.98644 -60.3002 22.8331 0.0467536 0.107129 3.49201 35.8116 -0.716326 -1.16172 -7.16756 7.09818 -4.10303 0.320597 -1.20079 -12.2059 3.06167 -3.07978 85.3278 54.22 -18.3595 -27.5197 0.056351 0.129118 -10.2309 -5.68611 58.6321 -22.8331 0.0467534 0.107129 -5.69913 53.5091 5.84552 8.70282 -3.96247 1.9152 7.00645 -5.24735 -11.8346 -0.803084 -36.5309 -0.617314 -0.474085 1.77036 -0.0235777 -2.19176 -38.0664 -5.69911 -0.242325 -2.01243 15.4342 0.734061 -9.31305 11.7736 -3.72721e-16 -8.07563e-16 2.48481e-17 -8.70282 -3.96247 1.9152 -1.55673 -10.2508 29.4784 0.803084 -36.5309 -0.617314 1.49147 5.56613 0.0247214 2.19176 -38.0664 -5.69911 5.96445 0.271536 -15.91 -0.734061 -9.31305 11.7736 -5.96354e-16 -5.59082e-16 -1.27471e-14 
